<svg>

  <symbol width="1em" height="1em" viewBox="0 0 16 16" id="person-icon" fill="currentColor"
    xmlns="http://www.w3.org/2000/svg">
    <path
      d="M13.468 12.37C12.758 11.226 11.195 10 8 10s-4.757 1.225-5.468 2.37A6.987 6.987 0 0 0 8 15a6.987 6.987 0 0 0 5.468-2.63z" />
    <path fill-rule="evenodd" d="M8 9a3 3 0 1 0 0-6 3 3 0 0 0 0 6z" />
    <path fill-rule="evenodd" d="M8 1a7 7 0 1 0 0 14A7 7 0 0 0 8 1zM0 8a8 8 0 1 1 16 0A8 8 0 0 1 0 8z" />
  </symbol>

  <symbol width="1em" height="1em" viewBox="0 0 16 16" id="repo-icon"  fill="currentColor" xmlns="http://www.w3.org/2000/svg">
    <path fill-rule="evenodd" d="M2 3a2 2 0 0 1 2-2h5.293a1 1 0 0 1 .707.293L13.707 5a1 1 0 0 1 .293.707V13a2 2 0 0 1-2 2H4a2 2 0 0 1-2-2V3zm7 2V2l4 4h-3a1 1 0 0 1-1-1zm1.854 2.854a.5.5 0 0 0-.708-.708L7.5 9.793 6.354 8.646a.5.5 0 1 0-.708.708l1.5 1.5a.5.5 0 0 0 .708 0l3-3z"/>
  </symbol>

  <symbol width="1em" height="1em" viewBox="0 0 16 16" id="fork-icon" fill="currentColor" xmlns="http://www.w3.org/2000/svg">
    <path fill-rule="evenodd" d="M5 3.25a.75.75 0 11-1.5 0 .75.75 0 011.5 0zm0 2.122a2.25 2.25 0 10-1.5 0v.878A2.25 2.25 0 005.75 8.5h1.5v2.128a2.251 2.251 0 101.5 0V8.5h1.5a2.25 2.25 0 002.25-2.25v-.878a2.25 2.25 0 10-1.5 0v.878a.75.75 0 01-.75.75h-4.5A.75.75 0 015 6.25v-.878zm3.75 7.378a.75.75 0 11-1.5 0 .75.75 0 011.5 0zm3-8.75a.75.75 0 100-1.5.75.75 0 000 1.5z"/>
  </symbol>

  <symbol width="1em" height="1em" viewBox="0 0 16 16" id="star-icon" fill="currentColor" xmlns="http://www.w3.org/2000/svg">
    <path fill-rule="evenodd" d="M2.866 14.85c-.078.444.36.791.746.593l4.39-2.256 4.389 2.256c.386.198.824-.149.746-.592l-.83-4.73 3.523-3.356c.329-.314.158-.888-.283-.95l-4.898-.696L8.465.792a.513.513 0 0 0-.927 0L5.354 5.12l-4.898.696c-.441.062-.612.636-.283.95l3.523 3.356-.83 4.73zm4.905-2.767l-3.686 1.894.694-3.957a.565.565 0 0 0-.163-.505L1.71 6.745l4.052-.576a.525.525 0 0 0 .393-.288l1.847-3.658 1.846 3.658a.525.525 0 0 0 .393.288l4.052.575-2.906 2.77a.564.564 0 0 0-.163.506l.694 3.957-3.686-1.894a.503.503 0 0 0-.461 0z"/>
  </symbol>

  <symbol width="1em" height="1em" viewBox="0 0 16 16" id="lang-icon" xmlns="http://www.w3.org/2000/svg">
    <circle cx="8" cy="8" r="8"/>
  </symbol>

</svg>
